<?xml version="1.0" encoding="iso-8859-1"?>
<!-- Uploaded to: SVG Repo, www.svgrepo.com, Generator: SVG Repo Mixer Tools -->
<svg fill="#000000" version="1.1" id="Layer_1" xmlns="http://www.w3.org/2000/svg" xmlns:xlink="http://www.w3.org/1999/xlink" 
	 viewBox="0 0 496 496" xml:space="preserve">
<g>
	<g>
		<g>
			<rect x="296" y="448" width="48" height="16"/>
			<path d="M472,54.944V40c0-22.056-17.944-40-40-40H208c-22.056,0-40,17.944-40,40v14.928l-23.72,86.968L144,168
				c0,14.872,10.24,27.288,24,30.864V240H0v256h248h8h176c22.056,0,40-17.944,40-40V198.864c13.76-3.576,24-15.992,24-30.864v-24
				L472,54.944z M477.536,136H446.68l-13.088-72h24.304L477.536,136z M184,40c0-13.232,10.768-24,24-24h224
				c13.232,0,24,10.768,24,24v8H184V40z M400,152h32v16c0,8.824-7.176,16-16,16c-8.824,0-16-7.176-16-16V152z M399.304,136
				l-6.544-72h24.56l13.088,72H399.304z M384,152v16c0,8.824-7.176,16-16,16c-8.824,0-16-7.176-16-16v-16H384z M352,136V64h24.696
				l6.544,72H352z M304,136V64h32v72H304z M336,152v16c0,8.824-7.176,16-16,16c-8.824,0-16-7.176-16-16v-16H336z M256.76,136
				l6.544-72H288v72H256.76z M288,152v16c0,8.824-7.176,16-16,16c-8.824,0-16-7.176-16-16v-16H288z M209.592,136l13.088-72h24.56
				l-6.544,72H209.592z M240,152v16c0,8.824-7.176,16-16,16c-8.824,0-16-7.176-16-16v-16H240z M182.112,64h24.304l-13.088,72H162.48
				L182.112,64z M160,168v-16h32v16c0,8.824-7.176,16-16,16C167.176,184,160,176.824,160,168z M112,256h32v96h-32V256z M240,480H16
				V256h80v112h64V256h80V480z M216,240v-16h208v96H256v-80H216z M456,456c0,13.232-10.768,24-24,24H256v-48h200V456z M456,416H256
				v-80h184V208H200v32h-16v-41.112c6.272-1.632,11.84-5.024,16-9.744C205.864,195.8,214.456,200,224,200s18.136-4.2,24-10.856
				C253.864,195.8,262.456,200,272,200s18.136-4.2,24-10.856C301.864,195.8,310.456,200,320,200s18.136-4.2,24-10.856
				C349.864,195.8,358.456,200,368,200s18.136-4.2,24-10.856C397.864,195.8,406.456,200,416,200s18.136-4.2,24-10.856
				c4.16,4.72,9.728,8.12,16,9.744V416z M480,168c0,8.824-7.176,16-16,16c-8.824,0-16-7.176-16-16v-16h32V168z"/>
			<rect x="32" y="448" width="16" height="16"/>
			<rect x="64" y="448" width="16" height="16"/>
			<rect x="96" y="448" width="16" height="16"/>
			<rect x="32" y="416" width="16" height="16"/>
			<rect x="64" y="416" width="16" height="16"/>
			<rect x="32" y="384" width="16" height="16"/>
			<rect x="424" y="384" width="16" height="16"/>
			<rect x="272" y="384" width="136" height="16"/>
			<rect x="272" y="352" width="168" height="16"/>
		</g>
	</g>
</g>
</svg>